<svg
  viewBox="0 0 38 41"
  xmlns="http://www.w3.org/2000/svg"
  fill-rule="evenodd"
  clip-rule="evenodd"
  stroke-linejoin="round"
  stroke-miterlimit="2"
>
  <path d="M19 40.158l19-36.75H23.5l-5 3.898-5-3.898H0l19 36.75z" />
  <path
    d="M19 28.408l10-25h-6.5c-2.085 4.432-5.252 4.432-7.5 0H9l10 25z"
    fill="#fff"
  />
  <path d="M10.893.4l7.594 6.015L6.089 5.196 10.893.4z" fill="#fff" />
  <path
    d="M10.953.005l.04.007.04.013.038.017.037.02.033.024 7.594 6.016.032.028.03.032.024.034.022.037.018.039.013.041.008.042.005.042v.043l-.006.042-.01.042-.013.041-.018.04-.023.035-.026.035-.029.03-.032.028-.036.025-.038.02-.04.016-.04.011-.043.008-.043.002-.042-.002L6.05 5.594l-.042-.006-.042-.011-.04-.016-.038-.02-.037-.023-.033-.027-.03-.03-.026-.035-.023-.036-.019-.039-.014-.04-.01-.042-.006-.043v-.043l.003-.043.009-.042.012-.041.017-.04.022-.037.025-.035.029-.032L10.61.117l.03-.028.034-.024.036-.02.038-.018.04-.013.04-.009.042-.005h.041l.041.005zM6.09 5.196l12.398 1.22L10.893.4 6.09 5.196z"
  />
  <path d="M26.395.4L18.8 6.415 31.2 5.196 26.395.4z" fill="#fff" />
  <path
    d="M26.417 0l.042.005.04.01.04.012.038.017.036.02.034.025.03.028 4.804 4.796.03.032.024.035.022.037.017.04.012.04.01.043.003.043-.001.043-.006.043-.01.041-.014.041-.019.039-.023.036-.026.034-.03.03-.033.028-.037.023-.038.02-.04.016-.042.01-.042.007-12.398 1.22-.042.001-.043-.002-.043-.008-.04-.011-.04-.017-.038-.02-.036-.024-.032-.027-.03-.031-.025-.035-.023-.036-.018-.039-.013-.04-.01-.043-.005-.042v-.043l.004-.042.008-.042.013-.041.018-.039.022-.037.025-.034.029-.032.032-.028L26.147.086l.033-.024.037-.02.038-.017.04-.013.04-.007.041-.004h.041zm-7.616 6.415L31.2 5.196 26.395.4 18.8 6.415z"
  />
  <g>
    <path
      d="M27.5 7.622c0-1.187-.299-2.475-.796-3.475-.08-.17-.299-.254-.518-.237-2.29.305-4.539 1.17-5.852 2.288a.511.511 0 01-.339.119h-1.97a.525.525 0 01-.339-.119c-1.334-1.119-3.563-1.966-5.872-2.288-.22-.017-.438.068-.518.237-.497 1-.796 2.288-.796 3.475h.08v.034-.034h-.08c0 1.356.299 2.509.796 3.526.08.17.299.27.518.254 2.309-.305 4.538-1.153 5.852-2.271a.511.511 0 01.339-.12h1.99c.14 0 .26.052.339.12 1.313 1.118 3.543 1.966 5.852 2.27a.515.515 0 00.518-.253c.497-1.017.796-2.17.796-3.526v.034-.034z"
      fill-rule="nonzero"
    />
  </g>
</svg>
