<?xml version="1.0" encoding="UTF-8" standalone="no"?>
<!DOCTYPE svg PUBLIC "-//W3C//DTD SVG 1.1//EN" "http://www.w3.org/Graphics/SVG/1.1/DTD/svg11.dtd">
<svg width="100%" height="100%" viewBox="0 0 26 29" version="1.1" xmlns="http://www.w3.org/2000/svg" xmlns:xlink="http://www.w3.org/1999/xlink" xml:space="preserve" xmlns:serif="http://www.serif.com/" style="fill-rule:evenodd;clip-rule:evenodd;stroke-linejoin:round;stroke-miterlimit:2;">
    <g transform="matrix(1,0,0,1,-16.1863,-11.9944)">
        <g transform="matrix(1,1.11332e-17,-1.11332e-17,-0.909091,-0.5,61.0566)">
            <path d="M30,22.5L40,50L36.5,50C34.415,45.124 26.248,45.124 24,50L20,50L30,22.5Z" style="fill:white;"/>
        </g>
        <g transform="matrix(0.652514,0.0641574,-0.0732935,0.745433,11.4968,-1.17353)">
            <path d="M17.076,17C21.083,20.004 25.235,22.284 29.5,24C23.061,23.526 17.34,23.497 11.14,24.092C9.398,22.229 13.114,18.664 17.076,17Z" style="fill:white;"/>
            <path d="M17.068,16.199L17.149,16.202L17.23,16.21L17.31,16.226L17.387,16.247L17.463,16.274L17.535,16.307L17.604,16.346L17.668,16.389L18.041,16.667L18.412,16.937L18.784,17.204L19.156,17.467L19.529,17.725L19.903,17.98L20.278,18.23L20.654,18.477L21.03,18.719L21.407,18.958L21.784,19.192L22.163,19.423L22.542,19.65L22.922,19.873L23.303,20.093L23.684,20.308L24.066,20.52L24.449,20.728L24.833,20.933L25.217,21.134L25.602,21.331L25.987,21.525L26.374,21.715L26.761,21.902L27.149,22.085L27.537,22.264L27.926,22.441L28.316,22.614L28.707,22.783L29.098,22.95L29.49,23.112L29.886,23.274L29.959,23.307L30.028,23.346L30.093,23.39L30.153,23.439L30.208,23.493L30.257,23.55L30.3,23.612L30.337,23.676L30.367,23.743L30.39,23.812L30.405,23.883L30.414,23.955L30.415,24.027L30.408,24.099L30.394,24.17L30.373,24.239L30.345,24.307L30.31,24.372L30.269,24.434L30.221,24.493L30.168,24.548L30.109,24.598L30.045,24.644L29.977,24.684L29.905,24.719L29.829,24.747L29.751,24.77L29.671,24.787L29.59,24.797L29.508,24.801L29.425,24.798L28.826,24.755L28.232,24.715L27.643,24.678L27.057,24.643L26.474,24.611L25.895,24.581L25.319,24.555L24.746,24.531L24.175,24.51L23.607,24.492L23.04,24.477L22.476,24.465L21.913,24.455L21.352,24.449L20.792,24.446L20.233,24.446L19.675,24.449L19.117,24.455L18.56,24.464L18.002,24.477L17.445,24.493L16.887,24.512L16.329,24.534L15.77,24.559L15.21,24.588L14.648,24.621L14.085,24.657L13.52,24.696L12.954,24.739L12.385,24.785L11.814,24.835L11.237,24.888L11.16,24.893L11.083,24.891L11.007,24.884L10.932,24.872L10.858,24.854L10.786,24.83L10.716,24.802L10.65,24.768L10.587,24.73L10.528,24.687L10.473,24.64L10.423,24.59L10.374,24.536L10.319,24.471L10.267,24.405L10.217,24.337L10.17,24.269L10.125,24.199L10.083,24.129L10.044,24.058L10.008,23.985L9.974,23.912L9.944,23.838L9.916,23.764L9.891,23.689L9.868,23.614L9.849,23.538L9.832,23.463L9.817,23.386L9.806,23.31L9.797,23.234L9.79,23.158L9.786,23.081L9.784,23.005L9.784,22.929L9.787,22.853L9.792,22.777L9.799,22.701L9.809,22.625L9.82,22.55L9.833,22.475L9.848,22.4L9.865,22.325L9.884,22.251L9.905,22.176L9.927,22.102L9.951,22.029L9.977,21.955L10.004,21.882L10.033,21.809L10.064,21.736L10.096,21.663L10.129,21.591L10.164,21.518L10.2,21.446L10.239,21.372L10.317,21.231L10.402,21.089L10.492,20.947L10.587,20.806L10.686,20.666L10.791,20.526L10.9,20.387L11.013,20.248L11.13,20.111L11.252,19.974L11.378,19.838L11.507,19.702L11.64,19.568L11.778,19.434L11.918,19.301L12.062,19.17L12.21,19.039L12.36,18.909L12.514,18.78L12.671,18.653L12.831,18.526L12.994,18.401L13.159,18.278L13.327,18.156L13.498,18.035L13.671,17.916L13.846,17.798L14.023,17.682L14.203,17.568L14.384,17.456L14.568,17.345L14.753,17.237L14.94,17.13L15.128,17.026L15.318,16.924L15.509,16.824L15.702,16.727L15.895,16.632L16.09,16.539L16.286,16.449L16.483,16.362L16.674,16.28L16.749,16.252L16.826,16.229L16.906,16.213L16.986,16.203L17.068,16.199ZM16.89,17.079L16.705,17.161L16.521,17.246L16.337,17.333L16.154,17.423L15.972,17.515L15.792,17.609L15.612,17.706L15.434,17.805L15.257,17.905L15.081,18.008L14.908,18.113L14.736,18.219L14.566,18.327L14.398,18.437L14.232,18.548L14.069,18.661L13.907,18.775L13.749,18.89L13.593,19.007L13.44,19.125L13.289,19.244L13.142,19.363L12.997,19.484L12.856,19.606L12.719,19.728L12.584,19.851L12.454,19.974L12.327,20.098L12.203,20.222L12.084,20.347L11.969,20.471L11.858,20.596L11.751,20.721L11.649,20.846L11.551,20.971L11.458,21.096L11.37,21.22L11.286,21.345L11.208,21.468L11.135,21.591L11.067,21.714L11.035,21.775L11.004,21.836L10.975,21.896L10.947,21.957L10.92,22.017L10.895,22.077L10.872,22.137L10.85,22.196L10.829,22.256L10.81,22.315L10.792,22.374L10.775,22.432L10.761,22.49L10.748,22.548L10.736,22.606L10.726,22.663L10.717,22.72L10.71,22.776L10.705,22.833L10.701,22.888L10.699,22.944L10.699,22.999L10.7,23.054L10.703,23.108L10.708,23.162L10.714,23.215L10.723,23.268L10.732,23.321L10.744,23.373L10.757,23.424L10.773,23.475L10.79,23.526L10.808,23.576L10.829,23.626L10.852,23.675L10.876,23.724L10.902,23.772L10.93,23.819L10.96,23.866L10.992,23.912L11.026,23.958L11.062,24.003L11.1,24.048L11.14,24.092L11.72,24.038L12.297,23.987L12.872,23.941L13.445,23.898L14.016,23.858L14.585,23.822L15.153,23.789L15.719,23.76L16.284,23.734L16.849,23.711L17.413,23.692L17.976,23.676L18.539,23.664L19.103,23.654L19.666,23.648L20.23,23.645L20.795,23.645L21.361,23.648L21.928,23.654L22.496,23.664L23.066,23.676L23.637,23.691L24.211,23.709L24.787,23.731L25.365,23.755L25.946,23.781L26.53,23.811L27.117,23.843L27.707,23.879L28.301,23.916L28.898,23.957L29.5,24L29.1,23.837L28.702,23.672L28.303,23.502L27.906,23.33L27.509,23.154L27.113,22.974L26.717,22.791L26.323,22.605L25.929,22.415L25.535,22.221L25.143,22.024L24.751,21.823L24.36,21.619L23.969,21.41L23.58,21.199L23.191,20.983L22.803,20.764L22.415,20.54L22.029,20.313L21.643,20.082L21.258,19.848L20.874,19.609L20.49,19.366L20.108,19.12L19.726,18.869L19.345,18.614L18.965,18.356L18.585,18.093L18.207,17.826L17.829,17.555L17.452,17.279L17.076,17L16.89,17.079Z" style="fill:rgb(31,34,43);"/>
        </g>
        <g transform="matrix(-0.652514,0.0641574,0.0732935,0.745433,46.7895,-1.1734)">
            <path d="M17.076,17C21.083,20.004 25.235,22.284 29.5,24C23.061,23.526 17.34,23.497 11.14,24.092C9.398,22.229 13.114,18.664 17.076,17Z" style="fill:white;"/>
            <path d="M16.906,16.213L16.826,16.229L16.749,16.252L16.674,16.28L16.483,16.362L16.286,16.449L16.09,16.539L15.895,16.632L15.702,16.727L15.509,16.824L15.318,16.924L15.128,17.026L14.94,17.13L14.753,17.237L14.568,17.345L14.384,17.456L14.203,17.568L14.023,17.682L13.846,17.798L13.671,17.916L13.498,18.035L13.327,18.156L13.159,18.278L12.994,18.401L12.831,18.526L12.671,18.653L12.514,18.78L12.36,18.909L12.21,19.039L12.062,19.169L11.918,19.301L11.778,19.434L11.64,19.568L11.507,19.702L11.378,19.838L11.252,19.974L11.13,20.111L11.013,20.248L10.9,20.387L10.791,20.526L10.686,20.666L10.587,20.806L10.492,20.947L10.402,21.089L10.317,21.231L10.239,21.372L10.2,21.446L10.164,21.518L10.129,21.59L10.096,21.663L10.064,21.736L10.033,21.809L10.004,21.882L9.977,21.955L9.951,22.029L9.927,22.102L9.905,22.176L9.884,22.251L9.865,22.325L9.848,22.4L9.833,22.475L9.82,22.55L9.809,22.625L9.799,22.701L9.792,22.777L9.787,22.853L9.784,22.929L9.784,23.005L9.786,23.081L9.79,23.158L9.797,23.234L9.806,23.31L9.817,23.386L9.832,23.463L9.849,23.538L9.868,23.614L9.891,23.689L9.916,23.764L9.944,23.838L9.974,23.912L10.008,23.985L10.044,24.058L10.083,24.129L10.125,24.199L10.17,24.269L10.217,24.337L10.267,24.405L10.319,24.471L10.374,24.536L10.423,24.59L10.473,24.64L10.528,24.687L10.587,24.73L10.65,24.768L10.717,24.802L10.786,24.831L10.858,24.854L10.932,24.872L11.007,24.884L11.083,24.891L11.16,24.893L11.237,24.888L11.814,24.835L12.385,24.785L12.954,24.739L13.52,24.696L14.085,24.657L14.648,24.621L15.21,24.588L15.77,24.559L16.329,24.534L16.887,24.512L17.445,24.493L18.002,24.477L18.56,24.464L19.117,24.455L19.675,24.449L20.233,24.446L20.792,24.446L21.352,24.449L21.913,24.455L22.476,24.465L23.04,24.477L23.607,24.492L24.175,24.51L24.746,24.531L25.319,24.555L25.895,24.581L26.474,24.611L27.057,24.643L27.643,24.678L28.232,24.715L28.826,24.755L29.425,24.798L29.508,24.801L29.59,24.797L29.671,24.787L29.751,24.77L29.829,24.747L29.905,24.719L29.977,24.684L30.045,24.644L30.109,24.598L30.168,24.548L30.221,24.493L30.269,24.434L30.31,24.372L30.345,24.307L30.373,24.239L30.394,24.17L30.408,24.099L30.415,24.027L30.414,23.955L30.405,23.883L30.39,23.812L30.367,23.743L30.337,23.676L30.3,23.612L30.257,23.55L30.208,23.493L30.153,23.439L30.093,23.39L30.028,23.346L29.959,23.307L29.886,23.274L29.49,23.112L29.098,22.95L28.707,22.783L28.316,22.614L27.926,22.441L27.537,22.264L27.149,22.085L26.761,21.902L26.374,21.715L25.987,21.525L25.602,21.331L25.217,21.134L24.833,20.933L24.449,20.728L24.066,20.52L23.684,20.308L23.303,20.093L22.922,19.873L22.542,19.65L22.163,19.423L21.784,19.192L21.407,18.958L21.03,18.719L20.653,18.477L20.278,18.23L19.903,17.98L19.529,17.725L19.156,17.467L18.784,17.204L18.412,16.937L18.041,16.667L17.668,16.389L17.604,16.346L17.535,16.307L17.463,16.274L17.387,16.247L17.31,16.226L17.23,16.21L17.149,16.202L17.068,16.199L16.986,16.203L16.906,16.213ZM17.452,17.279L17.829,17.555L18.207,17.826L18.585,18.093L18.965,18.356L19.345,18.614L19.726,18.869L20.108,19.12L20.49,19.366L20.874,19.609L21.258,19.848L21.643,20.082L22.029,20.313L22.415,20.54L22.803,20.764L23.191,20.983L23.58,21.199L23.969,21.41L24.36,21.619L24.751,21.823L25.143,22.024L25.535,22.221L25.929,22.415L26.323,22.605L26.717,22.791L27.113,22.974L27.509,23.154L27.906,23.33L28.303,23.502L28.702,23.672L29.1,23.837L29.5,24L28.898,23.957L28.301,23.916L27.707,23.879L27.117,23.843L26.53,23.811L25.946,23.781L25.365,23.755L24.787,23.731L24.211,23.709L23.637,23.691L23.066,23.676L22.496,23.664L21.928,23.654L21.361,23.648L20.795,23.645L20.23,23.645L19.666,23.648L19.103,23.654L18.539,23.664L17.976,23.676L17.413,23.692L16.849,23.711L16.284,23.734L15.719,23.76L15.153,23.789L14.585,23.822L14.016,23.858L13.445,23.898L12.872,23.941L12.297,23.987L11.72,24.038L11.14,24.092L11.1,24.048L11.062,24.003L11.026,23.958L10.992,23.912L10.96,23.866L10.93,23.819L10.902,23.772L10.876,23.724L10.852,23.675L10.829,23.626L10.808,23.576L10.79,23.526L10.773,23.475L10.757,23.424L10.744,23.373L10.732,23.321L10.723,23.268L10.714,23.215L10.708,23.162L10.703,23.108L10.7,23.054L10.699,22.999L10.699,22.944L10.701,22.888L10.705,22.833L10.71,22.776L10.717,22.72L10.726,22.663L10.736,22.606L10.748,22.548L10.761,22.49L10.775,22.432L10.792,22.374L10.81,22.315L10.829,22.256L10.85,22.196L10.872,22.137L10.895,22.077L10.92,22.017L10.947,21.957L10.975,21.896L11.004,21.836L11.035,21.775L11.067,21.714L11.135,21.591L11.208,21.468L11.286,21.345L11.37,21.22L11.458,21.096L11.551,20.971L11.649,20.846L11.751,20.721L11.858,20.596L11.969,20.471L12.084,20.347L12.203,20.222L12.327,20.098L12.454,19.974L12.584,19.851L12.719,19.728L12.856,19.606L12.997,19.484L13.142,19.363L13.289,19.244L13.44,19.125L13.593,19.007L13.749,18.89L13.907,18.775L14.069,18.661L14.232,18.548L14.398,18.437L14.566,18.327L14.736,18.219L14.908,18.113L15.081,18.008L15.257,17.905L15.434,17.805L15.612,17.706L15.792,17.609L15.972,17.515L16.154,17.423L16.337,17.333L16.521,17.246L16.705,17.161L16.89,17.079L17.076,17L17.452,17.279Z" style="fill:rgb(31,34,43);"/>
        </g>
        <g transform="matrix(0.199063,0,0,0.169504,20.4824,12.1887)">
            <path d="M88,45C88,38 86.5,30.4 84,24.5C83.6,23.5 82.5,23 81.4,23.1C69.9,24.9 58.6,30 52,36.6C51.5,37.1 50.9,37.3 50.3,37.3L40.4,37.3C39.7,37.3 39.1,37 38.7,36.6C32,30 20.8,25 9.2,23.1C8.1,23 7,23.5 6.6,24.5C4.1,30.4 2.6,38 2.6,45L3,45L3,45.2L3,45L2.6,45C2.6,53 4.1,59.8 6.6,65.8C7,66.8 8.1,67.4 9.2,67.3C20.8,65.5 32,60.5 38.6,53.9C39.1,53.4 39.7,53.2 40.3,53.2L50.3,53.2C51,53.2 51.6,53.5 52,53.9C58.6,60.5 69.8,65.5 81.4,67.3C82.5,67.5 83.5,66.8 84,65.8C86.5,59.8 88,53 88,45L88,45.2L88,45Z" style="fill:rgb(31,34,43);fill-rule:nonzero;"/>
        </g>
    </g>
</svg>
