<?xml version="1.0" encoding="UTF-8" standalone="no"?>
<svg
   xmlns:dc="http://purl.org/dc/elements/1.1/"
   xmlns:cc="http://creativecommons.org/ns#"
   xmlns:rdf="http://www.w3.org/1999/02/22-rdf-syntax-ns#"
   xmlns:svg="http://www.w3.org/2000/svg"
   xmlns="http://www.w3.org/2000/svg"
   xmlns:sodipodi="http://sodipodi.sourceforge.net/DTD/sodipodi-0.dtd"
   xmlns:inkscape="http://www.inkscape.org/namespaces/inkscape"
   version="1.1"
   id="Layer_1"
   x="0px"
   y="0px"
   viewBox="5 -10 66.666664 35.717569"
   enable-background="new 0 0 100 100"
   xml:space="preserve"
   height="26.457458"
   width="66.666664"
   inkscape:version="0.91 r13725"
   sodipodi:docname="bow-tie.svg"><metadata
     id="metadata3360"><rdf:RDF><cc:Work
         rdf:about=""><dc:format>image/svg+xml</dc:format><dc:type
           rdf:resource="http://purl.org/dc/dcmitype/StillImage" /><dc:title></dc:title></cc:Work></rdf:RDF></metadata><defs
     id="defs3358" /><sodipodi:namedview
     pagecolor="#ffffff"
     bordercolor="#666666"
     borderopacity="1"
     objecttolerance="10"
     gridtolerance="10"
     guidetolerance="10"
     inkscape:pageopacity="0"
     inkscape:pageshadow="2"
     inkscape:window-width="1600"
     inkscape:window-height="837"
     id="namedview3356"
     showgrid="false"
     inkscape:zoom="9.44"
     inkscape:cx="39.432708"
     inkscape:cy="4.8828838"
     inkscape:window-x="1592"
     inkscape:window-y="-8"
     inkscape:window-maximized="1"
     inkscape:current-layer="Layer_1"
     fit-margin-top="0"
     fit-margin-left="0"
     fit-margin-right="0"
     fit-margin-bottom="0" /><g
     id="g3399"
     transform="translate(-11.782812,-42.14143)"
     inkscape:export-xdpi="90"
     inkscape:export-ydpi="90"><g
       id="g3404"><path
         style="fill:#ffffff"
         d="m 51.004781,50.169525 c 0,8.712331 -27.222052,15.480206 -38.729827,16.58405 C 4.0750586,67.540122 5.9178795,60.976773 5.7265436,49.979548 5.4529823,34.256327 4.2778218,32.090218 15.713111,33.787719 c 11.560595,1.716102 35.29167,7.669474 35.29167,16.381806 z"
         id="path3366"
         inkscape:connector-curvature="0"
         sodipodi:nodetypes="sssss" /><path
         style="fill:#ffffff"
         d="m 49.009034,50.101435 c 0,8.71233 27.222053,15.480206 38.729827,16.58405 8.199895,0.786546 6.357075,-5.776802 6.548411,-16.774027 0.27356,-15.723221 1.448721,-17.88933 -9.986568,-16.191829 -11.560595,1.716102 -35.29167,7.669474 -35.29167,16.381806 z"
         id="path3366-0"
         inkscape:connector-curvature="0"
         sodipodi:nodetypes="sssss" /><path
         style="fill:#ffffff"
         d="m 43.789225,52.175058 c -0.0715,4.207562 0.835926,6.607509 6.052391,6.644961 5.303967,0.03808 6.039563,-3.696657 6.04788,-9.981125 0.01199,-9.062648 -3.484751,-7.824784 -6.768878,-7.825833 -4.535986,-0.0014 -5.183355,2.450922 -5.331393,11.161997 z"
         id="path3366-0-0"
         inkscape:connector-curvature="0"
         sodipodi:nodetypes="sssss" /></g></g><path
     d="m 77.974693,-9.9884288 c -12.913,0.892 -24.763,5.423 -31.13,7.8560001 -1.696,0.6489999 -3.031,1.15599995 -3.708,1.33799995 -0.863,-0.57400005 -1.848,-0.89300005 -2.891,-0.89300005 l -3.913,0 c -1.032,0 -2.034,0.324 -2.888,0.89000005 -0.731,-0.199 -2.046,-0.69700005 -3.713,-1.33499995 -6.366,-2.4330001 -18.216999,-6.9640001 -31.1299999,-7.8560001 -1.3790001,-0.094 -2.742,0.388 -3.7470002,1.326 -1.009,0.943 -1.566,2.224 -1.566,3.606 l 0,25.8299988 c 0,1.382 0.557,2.662 1.567,3.606 0.922,0.86 2.1470001,1.338 3.4050001,1.338 0.114,0 0.2280001,-0.004 0.3420001,-0.012 12.9130009,-0.892 24.7629999,-5.423 31.1299999,-7.856 1.667,-0.638 2.983,-1.137 3.712,-1.334 0.858,0.565 1.86,0.888 2.889,0.888 l 3.913,0 c 1.04,0 2.023,-0.316 2.889,-0.888 0.732,0.199 2.046,0.697 3.711,1.334 6.366,2.434 18.217,6.964 31.13,7.856 0.115,0.008 0.228,0.012 0.342,0.012 1.258,0 2.483,-0.478 3.405,-1.338 1.008,-0.943 1.565,-2.224 1.565,-3.606 l 0,-25.8299988 c 0,-1.382 -0.557,-2.663 -1.567,-3.606 -1.004,-0.938 -2.366,-1.4180002 -3.747,-1.326 z m -48.921,26.0629988 c -6.274,2.398 -17.951999,6.863 -30.5819999,7.735 -0.8650001,0.062 -1.6890001,-0.231 -2.319,-0.82 -0.6220002,-0.579 -0.9640002,-1.366 -0.9640002,-2.216 l 0,-25.8299988 c 0,-0.85 0.342,-1.637 0.9630002,-2.217 0.6299999,-0.588 1.4549999,-0.88 2.319,-0.82 12.6300009,0.873 24.3089999,5.3370001 30.5819999,7.73500005 1.167,0.446 2.117,0.806 2.897,1.075 -0.544,0.82999995 -0.866,1.78999995 -0.875,2.81099945 l -10.76,-2.58399945 c -0.51,-0.122 -1.023,0.19199995 -1.146,0.70199995 -0.122,0.51 0.192,1.023 0.702,1.145 l 11.199,2.6889995 0,4.7549993 -11.199,2.689 c -0.51,0.122 -0.825,0.636 -0.702,1.146 0.105,0.436 0.494,0.729 0.923,0.729 0.073,0 0.148,-0.009 0.223,-0.027 l 10.761,-2.584 c 0.01,1.019 0.331,1.979 0.874,2.809 -0.77,0.268 -1.723,0.629 -2.896,1.078 z m 11.192,-0.571 -3.913,0 c -0.765,0 -1.515,-0.266 -2.112,-0.747 -0.795,-0.643 -1.251,-1.599 -1.251,-2.621 l 0,-8.5599993 c 0,-1.0199995 0.455,-1.9709995 1.253,-2.61299945 0.595,-0.484 1.345,-0.751 2.11,-0.751 l 3.913,0 c 0.772,0 1.503,0.26 2.114,0.754 0.794,0.63899995 1.249,1.58999995 1.249,2.60999945 l 0,8.5599993 c 0,1.022 -0.456,1.977 -1.247,2.618 -0.613,0.491 -1.345,0.75 -2.116,0.75 z m 41.143,5.27 c 0,0.849 -0.342,1.637 -0.963,2.216 -0.63,0.588 -1.457,0.882 -2.319,0.82 -12.63,-0.873 -24.309,-5.337 -30.582,-7.735 -1.172,-0.448 -2.125,-0.809 -2.895,-1.076 0.542,-0.83 0.864,-1.79 0.874,-2.809 l 10.76,2.584 c 0.075,0.018 0.149,0.027 0.223,0.027 0.429,0 0.818,-0.293 0.923,-0.729 0.122,-0.51 -0.192,-1.023 -0.702,-1.146 l -11.199,-2.689 0,-4.7559993 11.198,-2.6889995 c 0.51,-0.122 0.825,-0.636 0.702,-1.145 -0.123,-0.51 -0.632,-0.82699995 -1.146,-0.70199995 l -10.759,2.58399945 c -0.009,-1.0199995 -0.331,-1.9799995 -0.874,-2.80899945 0.77,-0.267 1.722,-0.628 2.895,-1.076 6.274,-2.39799995 17.952,-6.86300005 30.582,-7.73500005 0.862,-0.061 1.688,0.231 2.319,0.82 0.621,0.58 0.963,1.367 0.963,2.217 l 0,25.8279988 z"
     id="path3350"
     style="fill:#2f2f2f;fill-opacity:1"
     inkscape:export-xdpi="90"
     inkscape:export-ydpi="90"
     inkscape:connector-curvature="0" /></svg>