<?xml version="1.0" encoding="UTF-8" standalone="no"?>
<!DOCTYPE svg PUBLIC "-//W3C//DTD SVG 1.1//EN" "http://www.w3.org/Graphics/SVG/1.1/DTD/svg11.dtd">
<svg width="100%" height="100%" viewBox="0 0 20 25" version="1.1" xmlns="http://www.w3.org/2000/svg" xmlns:xlink="http://www.w3.org/1999/xlink" xml:space="preserve" xmlns:serif="http://www.serif.com/" style="fill-rule:evenodd;clip-rule:evenodd;stroke-linejoin:round;stroke-miterlimit:2;">
    <g transform="matrix(1,0,0,1,-19.5,-15.6021)">
        <g transform="matrix(1,1.11332e-17,-1.11332e-17,-0.909091,-0.5,61.0566)">
            <path d="M30,22.5L40,50L36.5,50C34.095,46.564 25.911,46.636 24,50L20,50L30,22.5Z" style="fill:white;"/>
        </g>
        <g transform="matrix(0.199063,0,0,0.169504,20.4824,12.8366)">
            <path d="M88,45C88,38 86.5,30.4 84,24.5C83.6,23.5 82.5,23 81.4,23.1C69.9,24.9 58.6,30 52,36.6C51.5,37.1 50.9,37.3 50.3,37.3L40.4,37.3C39.7,37.3 39.1,37 38.7,36.6C32,30 20.8,25 9.2,23.1C8.1,23 7,23.5 6.6,24.5C4.1,30.4 2.6,38 2.6,45L3,45L3,45.2L3,45L2.6,45C2.6,53 4.1,59.8 6.6,65.8C7,66.8 8.1,67.4 9.2,67.3C20.8,65.5 32,60.5 38.6,53.9C39.1,53.4 39.7,53.2 40.3,53.2L50.3,53.2C51,53.2 51.6,53.5 52,53.9C58.6,60.5 69.8,65.5 81.4,67.3C82.5,67.5 83.5,66.8 84,65.8C86.5,59.8 88,53 88,45L88,45.2L88,45Z" style="fill:rgb(31,34,43);fill-rule:nonzero;"/>
        </g>
    </g>
</svg>
