<svg
  viewBox="0 0 60 60"
  xmlns="http://www.w3.org/2000/svg"
  fill-rule="evenodd"
  clip-rule="evenodd"
  stroke-linejoin="round"
  stroke-miterlimit="2"
>
  <path d="M29.5 52.352l19-36.75H34L29 19.5l-5-3.898H10.5l19 36.75z" />
  <path
    d="M29 19.5l5-3.898h14.5l-19 36.75-19-36.75H24l5 3.898zm-17.924-3.548L29.5 51.59l18.424-35.638H34.121l-4.906 3.824-.055.036-.063.024-.064.013h-.067l-.065-.013-.06-.024-.055-.036-4.906-3.824H11.076z"
    fill="#fff"
  />
  <path
    d="M29.5 40.602l10-25H33c-2.085 4.433-5.252 4.433-7.5 0h-6l10 25z"
    fill="#fff"
  />
  <path d="M21.393 12.594l7.594 6.016-12.398-1.22 4.804-4.796z" fill="#fff" />
  <path
    d="M21.453 12.2l.04.007.04.013.038.016.037.02.033.025 7.594 6.015.032.028.03.032.024.034.022.038.018.038.013.042.008.041.005.043v.042l-.006.043-.01.042-.013.04-.018.04-.023.036-.026.034-.029.031-.032.028-.036.024-.038.02-.04.016-.04.012-.043.007-.043.003-.042-.002-12.398-1.22-.042-.006-.042-.01-.04-.017-.038-.02-.037-.022-.033-.028-.03-.03-.026-.035-.023-.036-.019-.039-.014-.04-.01-.042-.006-.042v-.043l.003-.044.009-.042.012-.04.017-.04.022-.037.025-.036.029-.031 4.804-4.797.03-.027.034-.025.036-.02.038-.018.04-.013.04-.008.042-.005h.041l.041.004zm-4.864 5.19l12.398 1.22-7.594-6.016-4.804 4.797z"
  />
  <g>
    <path d="M36.895 12.594L29.3 18.61 41.7 17.39l-4.804-4.796z" fill="#fff" />
    <path
      d="M36.917 12.195l.042.005.04.008.04.013.038.018.036.02.034.025.03.027 4.804 4.797.03.031.024.036.022.037.017.04.012.04.01.042.003.044-.001.043-.006.042-.01.042-.014.04-.019.04-.023.035-.026.034-.03.031-.033.028-.037.023-.038.02-.04.015-.042.011-.042.007-12.398 1.219-.042.002-.043-.003-.043-.007-.04-.012-.04-.016-.038-.02-.036-.024-.032-.028-.03-.031-.025-.034-.023-.036-.018-.04-.013-.04-.01-.042-.005-.043v-.042l.004-.043.008-.041.013-.042.018-.038.022-.038.025-.034.029-.032.032-.028 7.594-6.015.033-.025.037-.02.038-.016.04-.013.04-.008.041-.004h.041zm-7.616 6.415L41.7 17.39l-4.804-4.796L29.3 18.61z"
    />
  </g>
  <g>
    <path
      d="M38 19.816c0-1.186-.299-2.474-.796-3.474-.08-.17-.299-.255-.518-.238-2.29.305-4.539 1.17-5.852 2.289a.511.511 0 01-.339.118h-1.97a.525.525 0 01-.339-.118c-1.334-1.12-3.563-1.967-5.872-2.289-.22-.017-.438.068-.518.238-.497 1-.796 2.288-.796 3.474h.08v.034-.034H21c0 1.356.299 2.509.796 3.526.08.17.299.271.518.254 2.309-.305 4.538-1.152 5.852-2.271a.511.511 0 01.339-.119h1.99c.14 0 .26.051.339.119 1.313 1.119 3.543 1.966 5.852 2.271a.515.515 0 00.518-.254c.497-1.017.796-2.17.796-3.526v.034-.034z"
      fill-rule="nonzero"
    />
  </g>
</svg>
