<?xml version="1.0" encoding="UTF-8" standalone="no"?>
<!DOCTYPE svg PUBLIC "-//W3C//DTD SVG 1.1//EN" "http://www.w3.org/Graphics/SVG/1.1/DTD/svg11.dtd">
<svg width="100%" height="100%" viewBox="0 0 26 29" version="1.1" xmlns="http://www.w3.org/2000/svg" xmlns:xlink="http://www.w3.org/1999/xlink" xml:space="preserve" xmlns:serif="http://www.serif.com/" style="fill-rule:evenodd;clip-rule:evenodd;stroke-linejoin:round;stroke-miterlimit:2;">
    <g transform="matrix(1,0,0,1,-16.3863,-12.1944)">
        <g transform="matrix(1,1.11332e-17,-1.11332e-17,-0.909091,-0.5,61.0566)">
            <path d="M30,22.5L40,50L33.5,50C31.415,45.124 28.248,45.124 26,50L20,50L30,22.5Z" style="fill:white;"/>
        </g>
        <g transform="matrix(0.652514,0.0641574,-0.0732935,0.745433,11.4968,-1.17353)">
            <path d="M17.076,17C21.083,20.004 25.235,22.284 29.5,24C23.061,23.526 17.34,23.497 11.14,24.092C9.398,22.229 13.114,18.664 17.076,17Z" style="fill:white;"/>
            <path d="M17.056,16.466L17.12,16.467L17.183,16.474L17.246,16.487L17.307,16.506L17.365,16.53L17.42,16.559L17.471,16.593L17.845,16.871L18.218,17.143L18.591,17.411L18.966,17.675L19.341,17.935L19.717,18.191L20.094,18.443L20.472,18.691L20.85,18.935L21.229,19.175L21.609,19.411L21.99,19.643L22.371,19.871L22.753,20.096L23.136,20.316L23.52,20.533L23.904,20.746L24.289,20.956L24.675,21.161L25.062,21.363L25.449,21.562L25.837,21.757L26.225,21.948L26.615,22.136L27.005,22.32L27.396,22.501L27.787,22.678L28.179,22.852L28.572,23.023L28.966,23.19L29.36,23.354L29.757,23.516L29.815,23.543L29.869,23.575L29.919,23.612L29.964,23.653L30.004,23.699L30.038,23.748L30.065,23.799L30.087,23.854L30.101,23.909L30.109,23.966L30.109,24.023L30.103,24.08L30.09,24.136L30.07,24.191L30.043,24.243L30.01,24.293L29.972,24.339L29.927,24.381L29.878,24.419L29.825,24.452L29.768,24.48L29.708,24.502L29.645,24.519L29.581,24.529L29.516,24.534L29.45,24.532L28.85,24.489L28.255,24.449L27.664,24.411L27.077,24.376L26.493,24.344L25.912,24.315L25.334,24.288L24.759,24.264L24.187,24.243L23.617,24.225L23.049,24.21L22.483,24.198L21.918,24.188L21.355,24.182L20.793,24.179L20.232,24.179L19.672,24.182L19.112,24.188L18.553,24.197L17.994,24.21L17.434,24.226L16.874,24.245L16.314,24.267L15.753,24.293L15.191,24.322L14.627,24.354L14.062,24.39L13.495,24.43L12.926,24.473L12.356,24.519L11.782,24.569L11.204,24.623L11.143,24.626L11.082,24.623L11.021,24.616L10.962,24.603L10.904,24.584L10.849,24.561L10.796,24.533L10.747,24.501L10.702,24.464L10.662,24.424L10.616,24.373L10.567,24.315L10.52,24.256L10.475,24.196L10.433,24.135L10.393,24.073L10.356,24.01L10.321,23.946L10.289,23.882L10.259,23.817L10.232,23.751L10.207,23.685L10.185,23.618L10.165,23.551L10.147,23.483L10.132,23.415L10.119,23.347L10.109,23.279L10.1,23.21L10.094,23.141L10.091,23.072L10.089,23.003L10.089,22.934L10.092,22.864L10.096,22.795L10.103,22.726L10.111,22.657L10.122,22.588L10.134,22.518L10.148,22.449L10.164,22.38L10.181,22.311L10.2,22.242L10.221,22.173L10.244,22.104L10.268,22.035L10.293,21.967L10.321,21.898L10.349,21.829L10.379,21.761L10.411,21.692L10.444,21.624L10.478,21.556L10.515,21.486L10.59,21.351L10.671,21.215L10.757,21.08L10.848,20.944L10.944,20.809L11.044,20.674L11.149,20.54L11.259,20.406L11.373,20.273L11.491,20.14L11.613,20.007L11.739,19.876L11.869,19.744L12.003,19.614L12.14,19.484L12.281,19.356L12.425,19.228L12.573,19.101L12.723,18.975L12.877,18.85L13.034,18.726L13.193,18.603L13.356,18.482L13.521,18.362L13.688,18.243L13.858,18.126L14.03,18.011L14.204,17.897L14.38,17.785L14.559,17.675L14.739,17.566L14.921,17.46L15.104,17.355L15.289,17.253L15.476,17.153L15.664,17.055L15.853,16.959L16.043,16.866L16.234,16.775L16.426,16.687L16.619,16.601L16.808,16.52L16.867,16.498L16.929,16.482L16.992,16.471L17.056,16.466ZM16.89,17.079L16.705,17.161L16.521,17.246L16.337,17.333L16.154,17.423L15.972,17.515L15.792,17.609L15.612,17.706L15.434,17.805L15.257,17.905L15.081,18.008L14.908,18.113L14.736,18.219L14.566,18.327L14.398,18.437L14.232,18.548L14.069,18.661L13.907,18.775L13.749,18.89L13.593,19.007L13.44,19.125L13.289,19.244L13.142,19.363L12.997,19.484L12.856,19.606L12.719,19.728L12.584,19.851L12.454,19.974L12.327,20.098L12.203,20.222L12.084,20.347L11.969,20.471L11.858,20.596L11.751,20.721L11.649,20.846L11.551,20.971L11.458,21.096L11.37,21.22L11.286,21.345L11.208,21.468L11.135,21.591L11.067,21.714L11.035,21.775L11.004,21.836L10.975,21.896L10.947,21.957L10.92,22.017L10.895,22.077L10.872,22.137L10.85,22.196L10.829,22.256L10.81,22.315L10.792,22.374L10.775,22.432L10.761,22.49L10.748,22.548L10.736,22.606L10.726,22.663L10.717,22.72L10.71,22.776L10.705,22.833L10.701,22.888L10.699,22.944L10.699,22.999L10.7,23.054L10.703,23.108L10.708,23.162L10.714,23.215L10.723,23.268L10.732,23.321L10.744,23.373L10.757,23.424L10.773,23.475L10.79,23.526L10.808,23.576L10.829,23.626L10.852,23.675L10.876,23.724L10.902,23.772L10.93,23.819L10.96,23.866L10.992,23.912L11.026,23.958L11.062,24.003L11.1,24.048L11.14,24.092L11.72,24.038L12.297,23.987L12.872,23.941L13.445,23.898L14.016,23.858L14.585,23.822L15.153,23.789L15.719,23.76L16.284,23.734L16.849,23.711L17.413,23.692L17.976,23.676L18.539,23.664L19.103,23.654L19.666,23.648L20.23,23.645L20.795,23.645L21.361,23.648L21.928,23.654L22.496,23.664L23.066,23.676L23.637,23.691L24.211,23.709L24.787,23.731L25.365,23.755L25.946,23.781L26.53,23.811L27.117,23.843L27.707,23.879L28.301,23.916L28.898,23.957L29.5,24L29.1,23.837L28.702,23.672L28.303,23.502L27.906,23.33L27.509,23.154L27.113,22.974L26.717,22.791L26.323,22.605L25.929,22.415L25.535,22.221L25.143,22.024L24.751,21.823L24.36,21.619L23.969,21.41L23.58,21.199L23.191,20.983L22.803,20.764L22.415,20.54L22.029,20.313L21.643,20.082L21.258,19.848L20.874,19.609L20.49,19.366L20.108,19.12L19.726,18.869L19.345,18.614L18.965,18.356L18.585,18.093L18.207,17.826L17.829,17.555L17.452,17.279L17.076,17L16.89,17.079Z"/>
        </g>
        <g transform="matrix(-0.652514,0.0641574,0.0732935,0.745433,46.7895,-1.1734)">
            <path d="M17.076,17C21.083,20.004 25.235,22.284 29.5,24C23.061,23.526 17.34,23.497 11.14,24.092C9.398,22.229 13.114,18.664 17.076,17Z" style="fill:white;"/>
            <path d="M16.929,16.482L16.867,16.498L16.808,16.52L16.619,16.601L16.426,16.687L16.234,16.775L16.043,16.866L15.853,16.959L15.664,17.055L15.476,17.153L15.289,17.253L15.104,17.355L14.921,17.46L14.739,17.566L14.559,17.675L14.38,17.785L14.204,17.897L14.03,18.011L13.858,18.126L13.688,18.244L13.521,18.362L13.356,18.482L13.193,18.603L13.034,18.726L12.877,18.85L12.723,18.975L12.573,19.101L12.425,19.228L12.281,19.356L12.14,19.484L12.003,19.614L11.869,19.744L11.739,19.876L11.613,20.007L11.491,20.14L11.373,20.273L11.259,20.406L11.149,20.54L11.044,20.674L10.944,20.809L10.848,20.944L10.757,21.08L10.671,21.215L10.59,21.351L10.515,21.486L10.478,21.556L10.444,21.624L10.411,21.692L10.379,21.761L10.349,21.829L10.321,21.898L10.293,21.967L10.268,22.035L10.244,22.104L10.221,22.173L10.2,22.242L10.181,22.311L10.164,22.38L10.148,22.449L10.134,22.518L10.122,22.588L10.111,22.657L10.103,22.726L10.096,22.795L10.092,22.864L10.089,22.934L10.089,23.003L10.091,23.072L10.094,23.141L10.1,23.21L10.109,23.278L10.119,23.347L10.132,23.415L10.147,23.483L10.165,23.551L10.185,23.618L10.207,23.685L10.232,23.751L10.259,23.817L10.289,23.882L10.321,23.946L10.356,24.01L10.393,24.073L10.433,24.135L10.475,24.196L10.52,24.256L10.567,24.315L10.616,24.373L10.662,24.424L10.702,24.464L10.747,24.501L10.796,24.533L10.849,24.561L10.904,24.584L10.962,24.603L11.021,24.616L11.082,24.623L11.143,24.626L11.204,24.623L11.782,24.569L12.356,24.519L12.926,24.473L13.495,24.43L14.062,24.39L14.627,24.354L15.191,24.322L15.753,24.293L16.314,24.267L16.874,24.245L17.434,24.226L17.994,24.21L18.553,24.197L19.112,24.188L19.672,24.182L20.232,24.179L20.793,24.179L21.355,24.182L21.918,24.188L22.483,24.198L23.049,24.21L23.617,24.225L24.187,24.243L24.759,24.264L25.334,24.288L25.912,24.315L26.493,24.344L27.077,24.376L27.664,24.411L28.255,24.449L28.85,24.489L29.45,24.532L29.516,24.534L29.581,24.529L29.645,24.519L29.708,24.502L29.768,24.48L29.825,24.452L29.878,24.419L29.927,24.381L29.972,24.339L30.01,24.293L30.043,24.243L30.07,24.191L30.09,24.136L30.103,24.08L30.109,24.023L30.109,23.966L30.101,23.909L30.087,23.854L30.065,23.799L30.038,23.748L30.004,23.699L29.964,23.653L29.919,23.612L29.869,23.575L29.815,23.543L29.757,23.516L29.36,23.354L28.966,23.19L28.572,23.023L28.179,22.852L27.787,22.678L27.396,22.501L27.005,22.32L26.615,22.136L26.225,21.948L25.837,21.757L25.449,21.562L25.062,21.363L24.675,21.161L24.289,20.956L23.904,20.746L23.52,20.533L23.136,20.316L22.753,20.096L22.371,19.871L21.99,19.643L21.609,19.411L21.229,19.175L20.85,18.935L20.472,18.691L20.094,18.443L19.717,18.191L19.341,17.935L18.966,17.675L18.591,17.411L18.218,17.143L17.845,16.871L17.471,16.593L17.42,16.559L17.365,16.53L17.307,16.506L17.246,16.487L17.183,16.474L17.12,16.467L17.056,16.466L16.992,16.471L16.929,16.482ZM17.452,17.279L17.829,17.555L18.207,17.826L18.585,18.093L18.965,18.356L19.345,18.614L19.726,18.869L20.108,19.12L20.49,19.366L20.874,19.609L21.258,19.848L21.643,20.082L22.029,20.313L22.415,20.54L22.803,20.764L23.191,20.983L23.58,21.199L23.969,21.41L24.36,21.619L24.751,21.823L25.143,22.024L25.535,22.221L25.929,22.415L26.323,22.605L26.717,22.791L27.113,22.974L27.509,23.154L27.906,23.33L28.303,23.502L28.702,23.672L29.1,23.837L29.5,24L28.898,23.957L28.301,23.916L27.707,23.879L27.117,23.843L26.53,23.811L25.946,23.781L25.365,23.755L24.787,23.731L24.211,23.709L23.637,23.691L23.066,23.676L22.496,23.664L21.928,23.654L21.361,23.648L20.795,23.645L20.23,23.645L19.666,23.648L19.103,23.654L18.539,23.664L17.976,23.676L17.413,23.692L16.849,23.711L16.284,23.734L15.719,23.76L15.153,23.789L14.585,23.822L14.016,23.858L13.445,23.898L12.872,23.941L12.297,23.987L11.72,24.038L11.14,24.092L11.1,24.048L11.062,24.003L11.026,23.958L10.992,23.912L10.96,23.866L10.93,23.819L10.902,23.772L10.876,23.724L10.852,23.675L10.829,23.626L10.808,23.576L10.79,23.526L10.773,23.475L10.757,23.424L10.744,23.373L10.732,23.321L10.723,23.268L10.714,23.215L10.708,23.162L10.703,23.108L10.7,23.054L10.699,22.999L10.699,22.944L10.701,22.888L10.705,22.833L10.71,22.776L10.717,22.72L10.726,22.663L10.736,22.606L10.748,22.548L10.761,22.49L10.775,22.432L10.792,22.374L10.81,22.315L10.829,22.256L10.85,22.196L10.872,22.137L10.895,22.077L10.92,22.017L10.947,21.957L10.975,21.896L11.004,21.836L11.035,21.775L11.067,21.714L11.135,21.591L11.208,21.468L11.286,21.345L11.37,21.22L11.458,21.096L11.551,20.971L11.649,20.846L11.751,20.721L11.858,20.596L11.969,20.471L12.084,20.347L12.203,20.222L12.327,20.098L12.454,19.974L12.584,19.851L12.719,19.728L12.856,19.606L12.997,19.484L13.142,19.363L13.289,19.244L13.44,19.125L13.593,19.007L13.749,18.89L13.907,18.775L14.069,18.661L14.232,18.548L14.398,18.437L14.566,18.327L14.736,18.219L14.908,18.113L15.081,18.008L15.257,17.905L15.434,17.805L15.612,17.706L15.792,17.609L15.972,17.515L16.154,17.423L16.337,17.333L16.521,17.246L16.705,17.161L16.89,17.079L17.076,17L17.452,17.279Z"/>
        </g>
        <g transform="matrix(0.199063,0,0,0.169504,20.4824,12.1887)">
            <path d="M88,45C88,38 86.5,30.4 84,24.5C83.6,23.5 82.5,23 81.4,23.1C69.9,24.9 58.6,30 52,36.6C51.5,37.1 50.9,37.3 50.3,37.3L40.4,37.3C39.7,37.3 39.1,37 38.7,36.6C32,30 20.8,25 9.2,23.1C8.1,23 7,23.5 6.6,24.5C4.1,30.4 2.6,38 2.6,45L3,45L3,45.2L3,45L2.6,45C2.6,53 4.1,59.8 6.6,65.8C7,66.8 8.1,67.4 9.2,67.3C20.8,65.5 32,60.5 38.6,53.9C39.1,53.4 39.7,53.2 40.3,53.2L50.3,53.2C51,53.2 51.6,53.5 52,53.9C58.6,60.5 69.8,65.5 81.4,67.3C82.5,67.5 83.5,66.8 84,65.8C86.5,59.8 88,53 88,45L88,45.2L88,45Z" style="fill-rule:nonzero;"/>
        </g>
    </g>
</svg>
