<svg
  viewBox="0 0 60 60"
  xmlns="http://www.w3.org/2000/svg"
  fill-rule="evenodd"
  clip-rule="evenodd"
  stroke-linejoin="round"
  stroke-miterlimit="2"
  fill="currentColor"
>
  <path
    d="M55.7 28.932c0-4.131-.885-8.616-2.36-12.098-.237-.59-.886-.886-1.535-.827-6.787 1.063-13.456 4.073-17.35 7.968-.296.295-.65.413-1.004.413h-5.843c-.413 0-.767-.177-1.003-.413-3.954-3.895-10.564-6.846-17.41-7.968-.65-.059-1.298.236-1.534.827C6.185 20.316 5.3 24.8 5.3 28.932h.236v.118-.118H5.3c0 4.721.885 8.734 2.36 12.275.237.59.886.945 1.535.886 6.846-1.063 13.456-4.013 17.35-7.909.296-.295.65-.413 1.004-.413h5.902c.413 0 .767.177 1.003.413 3.895 3.896 10.505 6.846 17.35 7.909.65.118 1.24-.295 1.535-.886 1.476-3.54 2.361-7.554 2.361-12.275v.118-.118z"
    fill-rule="nonzero"
  />
</svg>
